<?xml version="1.0" standalone="no"?>
<!DOCTYPE svg PUBLIC "-//W3C//DTD SVG 20010904//EN"
 "http://www.w3.org/TR/2001/REC-SVG-20010904/DTD/svg10.dtd">
<svg version="1.0" xmlns="http://www.w3.org/2000/svg"
 width="500.000000pt" height="500.000000pt" viewBox="0 0 500.000000 500.000000"
 preserveAspectRatio="xMidYMid meet">

<g transform="translate(0.000000,500.000000) scale(0.100000,-0.100000)"
fill="#000000" stroke="none">
<path d="M450 3779 c-44 -18 -90 -59 -113 -102 l-22 -42 -3 -1124 c-3 -1253
-6 -1184 66 -1254 74 -72 -96 -67 2121 -67 1641 1 2003 3 2034 14 57 21 102
60 126 110 l21 46 0 1130 c0 1000 -2 1135 -16 1168 -19 47 -58 88 -106 113
-36 19 -89 19 -2060 18 -1304 0 -2032 -4 -2048 -10z m1071 -803 c118 -148 220
-269 224 -269 5 0 107 121 225 269 l216 269 222 3 222 2 0 -755 0 -755 -220 0
-220 0 0 426 c0 273 -3 423 -10 419 -5 -3 -105 -125 -221 -271 -117 -146 -216
-261 -220 -257 -4 4 -102 127 -218 272 l-211 263 -2 -423 -3 -424 -222 -3
-223 -2 0 755 0 755 223 -2 222 -3 216 -269z m2327 -118 l2 -388 217 -2 217
-3 -327 -360 c-180 -198 -330 -359 -334 -358 -5 1 -155 163 -334 360 l-326
358 219 3 218 2 0 390 0 390 223 -2 222 -3 3 -387z"/>
</g>
</svg>
